<mxfile host="app.diagrams.net" modified="2023-04-01T08:40:01.423Z" agent="Mozilla/5.0 (Macintosh; Intel Mac OS X 10.15; rv:109.0) Gecko/20100101 Firefox/111.0" etag="iFobiZAwMfXXBqLVhBO2" version="21.1.2" type="github">
  <diagram name="Page-1" id="VIj9F-UDVgp4J_T-zkPH">
    <mxGraphModel dx="1234" dy="1129" grid="1" gridSize="10" guides="1" tooltips="1" connect="1" arrows="1" fold="1" page="1" pageScale="1" pageWidth="850" pageHeight="1100" math="0" shadow="0">
      <root>
        <mxCell id="0" />
        <mxCell id="1" parent="0" />
        <mxCell id="t3pTlEitGFHSSptCCstb-4" style="edgeStyle=orthogonalEdgeStyle;rounded=0;orthogonalLoop=1;jettySize=auto;html=1;entryX=0;entryY=0.5;entryDx=0;entryDy=0;" edge="1" parent="1" source="t3pTlEitGFHSSptCCstb-1" target="t3pTlEitGFHSSptCCstb-2">
          <mxGeometry relative="1" as="geometry" />
        </mxCell>
        <mxCell id="t3pTlEitGFHSSptCCstb-6" style="edgeStyle=orthogonalEdgeStyle;rounded=0;orthogonalLoop=1;jettySize=auto;html=1;entryX=0;entryY=0.5;entryDx=0;entryDy=0;" edge="1" parent="1" source="t3pTlEitGFHSSptCCstb-1" target="t3pTlEitGFHSSptCCstb-3">
          <mxGeometry relative="1" as="geometry">
            <Array as="points">
              <mxPoint x="190" y="600" />
            </Array>
          </mxGeometry>
        </mxCell>
        <mxCell id="t3pTlEitGFHSSptCCstb-1" value="" style="rounded=0;whiteSpace=wrap;html=1;" vertex="1" parent="1">
          <mxGeometry x="130" y="320" width="120" height="60" as="geometry" />
        </mxCell>
        <mxCell id="t3pTlEitGFHSSptCCstb-5" style="edgeStyle=orthogonalEdgeStyle;rounded=0;orthogonalLoop=1;jettySize=auto;html=1;" edge="1" parent="1" source="t3pTlEitGFHSSptCCstb-2" target="t3pTlEitGFHSSptCCstb-3">
          <mxGeometry relative="1" as="geometry" />
        </mxCell>
        <mxCell id="t3pTlEitGFHSSptCCstb-2" value="" style="rounded=0;whiteSpace=wrap;html=1;" vertex="1" parent="1">
          <mxGeometry x="510" y="320" width="120" height="60" as="geometry" />
        </mxCell>
        <mxCell id="t3pTlEitGFHSSptCCstb-3" value="" style="rounded=0;whiteSpace=wrap;html=1;" vertex="1" parent="1">
          <mxGeometry x="510" y="570" width="120" height="60" as="geometry" />
        </mxCell>
      </root>
    </mxGraphModel>
  </diagram>
</mxfile>
